<svg width="150" height="150" viewBox="0 0 150 150" fill="none" xmlns="http://www.w3.org/2000/svg">
<rect width="150" height="150" rx="75" fill="url(#paint0_linear_47_769)"/>
<path d="M21.6704 74.7949C20.0753 74.7949 18.6776 74.4835 17.4775 73.8606C16.2773 73.2529 15.343 72.4098 14.6746 71.3312C14.0061 70.2526 13.6719 69.0144 13.6719 67.6168C13.6719 67.2066 13.7023 66.766 13.7631 66.2951C13.839 65.809 13.953 65.3304 14.1049 64.8595C14.2568 64.3885 14.4315 63.9707 14.629 63.6061C14.7657 63.3631 14.8949 63.196 15.0164 63.1048C15.1531 63.0137 15.3658 63.0213 15.6545 63.1276L16.9761 63.5834C17.2192 63.6593 17.3787 63.7581 17.4547 63.8796C17.5306 64.0011 17.5079 64.191 17.3863 64.4493C17.1736 64.9202 17.0141 65.3912 16.9078 65.8621C16.8014 66.3331 16.7559 66.7888 16.7711 67.2294C16.7862 68.0194 16.9913 68.7106 17.3863 69.3031C17.7965 69.8804 18.3738 70.3285 19.1182 70.6475C19.8626 70.9818 20.7437 71.1489 21.7616 71.1489H22.9465C24.0403 71.1489 24.9443 71.0805 25.6583 70.9438C26.3723 70.8071 26.904 70.602 27.2534 70.3285C27.6028 70.0399 27.7775 69.7057 27.7775 69.3259C27.7775 69.0372 27.7016 68.8093 27.5496 68.6422C27.3977 68.4599 27.1699 68.3156 26.866 68.2093C26.5622 68.1029 26.1672 68.027 25.6811 67.9814L23.7669 67.7991C22.8402 67.7079 22.1034 67.4952 21.5565 67.161C21.0096 66.8116 20.6146 66.3786 20.3715 65.8621C20.1284 65.3304 20.0069 64.7379 20.0069 64.0847C20.0069 63.0972 20.2576 62.2085 20.7589 61.4185C21.2754 60.6285 21.9818 60.0057 22.8782 59.5499C23.7745 59.079 24.7999 58.8435 25.9545 58.8435C26.6533 58.8435 27.2762 58.965 27.8231 59.2081C28.3852 59.436 28.8637 59.7474 29.2587 60.1424C29.6689 60.5374 29.9803 60.9856 30.193 61.4869C30.4209 61.973 30.5348 62.4668 30.5348 62.9681C30.5348 63.2263 30.4969 63.4162 30.4209 63.5378C30.3601 63.6441 30.2158 63.6973 29.9879 63.6973H28.1877C27.8231 63.6973 27.6332 63.5226 27.618 63.1732C27.6028 62.7326 27.4281 62.4136 27.0939 62.2161C26.7749 62.0186 26.4103 61.9198 26.0001 61.9198C25.4076 61.9198 24.8759 62.0186 24.4049 62.2161C23.9492 62.4136 23.5846 62.6642 23.3111 62.9681C23.0529 63.2719 22.9237 63.5909 22.9237 63.9252C22.9237 64.2594 23.0377 64.5101 23.2656 64.6772C23.5086 64.8291 23.934 64.9506 24.5417 65.0418L26.3191 65.2924C27.3977 65.4292 28.2713 65.6722 28.9397 66.0216C29.6081 66.3559 30.1019 66.7812 30.4209 67.2977C30.7399 67.8143 30.8994 68.4295 30.8994 69.1436C30.8994 70.1918 30.6944 71.0805 30.2842 71.8097C29.874 72.5389 29.3119 73.1162 28.5979 73.5416C27.8991 73.9821 27.0939 74.3012 26.1824 74.4987C25.2709 74.6962 24.3062 74.7949 23.2883 74.7949H21.6704ZM21.4425 79.2157C21.3514 79.3069 21.2375 79.3449 21.1007 79.3297C20.964 79.3297 20.8425 79.2841 20.7361 79.1929L19.6423 78.0991C19.5512 77.9928 19.498 77.8713 19.4828 77.7345C19.4828 77.5978 19.536 77.4839 19.6423 77.3927L20.7361 76.2989C20.8425 76.1926 20.9564 76.1394 21.0779 76.1394C21.2147 76.1394 21.3362 76.1926 21.4425 76.2989L22.5136 77.3927C22.6199 77.4839 22.6731 77.5978 22.6731 77.7345C22.6883 77.8864 22.6427 78.0156 22.5364 78.1219L21.4425 79.2157ZM24.61 79.2157C24.5189 79.3069 24.4049 79.3449 24.2682 79.3297C24.1467 79.3297 24.0327 79.2841 23.9264 79.1929L22.8098 78.0991C22.7187 77.9928 22.6655 77.8713 22.6503 77.7345C22.6503 77.5978 22.7035 77.4839 22.8098 77.3927L23.9264 76.2989C24.0327 76.1926 24.1467 76.1394 24.2682 76.1394C24.3898 76.1394 24.4961 76.1926 24.5872 76.2989L25.6811 77.3927C25.7874 77.4839 25.8406 77.5978 25.8406 77.7345C25.8558 77.8864 25.8102 78.0156 25.7038 78.1219L24.61 79.2157ZM31.0315 76.3673C30.7885 76.3673 30.6138 76.2989 30.5074 76.1622C30.4011 76.0406 30.3479 75.8735 30.3479 75.6608V73.5644C30.3479 73.3365 30.4163 73.1694 30.553 73.063C30.6897 72.9719 30.8796 72.9263 31.1227 72.9263H31.6468C33.0748 72.9263 34.1003 72.5617 34.7232 71.8325C35.346 71.1033 35.6574 70.0854 35.6574 68.779C35.6574 68.2472 35.6043 67.7079 35.4979 67.161C35.4068 66.5989 35.308 66.0672 35.2017 65.5659L34.7459 63.5606C34.7004 63.3023 34.7232 63.1124 34.8143 62.9909C34.9055 62.8541 35.1029 62.7478 35.4068 62.6718L37.0475 62.2617C37.2754 62.2009 37.4425 62.2085 37.5488 62.2845C37.6552 62.3452 37.7311 62.4364 37.7767 62.5579C37.8223 62.6794 37.8603 62.8162 37.8906 62.9681L38.5287 65.4747C38.6199 65.8545 38.7642 66.1584 38.9617 66.3862C39.1592 66.5989 39.4022 66.7432 39.6909 66.8192C39.9947 66.8952 40.3441 66.9331 40.7391 66.9331H41.1721C41.4151 66.9331 41.5367 67.0471 41.5367 67.275V70.0779C41.5367 70.5336 41.3088 70.7615 40.853 70.7615C40.3061 70.7615 39.8124 70.7007 39.3718 70.5792C38.9465 70.4576 38.673 70.2981 38.5515 70.1006C38.5059 70.9666 38.3464 71.7717 38.0729 72.5161C37.7995 73.2757 37.3893 73.9442 36.8424 74.5215C36.2955 75.0987 35.6119 75.5469 34.7915 75.8659C33.9863 76.2002 33.0293 76.3673 31.9203 76.3673H31.0315ZM40.3966 70.7615C40.1687 70.7615 40.0548 70.6475 40.0548 70.4197V67.6168C40.0548 67.161 40.2826 66.9331 40.7384 66.9331C41.5132 66.9331 42.0449 66.766 42.3335 66.4318C42.6222 66.0976 42.7665 65.5203 42.7665 64.6999V62.6946C42.7665 62.2693 42.964 62.0566 43.359 62.0566H45.3871C45.7821 62.0566 45.9796 62.2693 45.9796 62.6946V64.6999C45.9796 65.2165 46.0479 65.6418 46.1847 65.9761C46.3366 66.3103 46.5872 66.5534 46.9367 66.7053C47.3013 66.8572 47.8102 66.9331 48.4634 66.9331C48.6913 66.9331 48.8052 67.0471 48.8052 67.275V70.0779C48.8052 70.5336 48.5774 70.7615 48.1216 70.7615C46.9822 70.7615 46.0327 70.6172 45.2732 70.3285C44.5136 70.0399 43.9743 69.5082 43.6552 68.7334C43.4122 69.4626 42.9944 69.9867 42.4019 70.3057C41.8246 70.6096 41.1562 70.7615 40.3966 70.7615ZM43.1995 75.2279C43.1083 75.319 42.9944 75.357 42.8577 75.3418C42.7209 75.3418 42.5994 75.2962 42.4931 75.2051L41.3992 74.1113C41.3081 74.0049 41.2549 73.8834 41.2397 73.7467C41.2397 73.6099 41.2929 73.496 41.3992 73.4049L42.4931 72.311C42.5994 72.2047 42.7133 72.1515 42.8349 72.1515C42.9716 72.1515 43.0931 72.2047 43.1995 72.311L44.2705 73.4049C44.3768 73.496 44.43 73.6099 44.43 73.7467C44.4452 73.8986 44.3996 74.0277 44.2933 74.1341L43.1995 75.2279ZM46.367 75.2279C46.2758 75.319 46.1619 75.357 46.0251 75.3418C45.9036 75.3418 45.7897 75.2962 45.6833 75.2051L44.5667 74.1113C44.4756 74.0049 44.4224 73.8834 44.4072 73.7467C44.4072 73.6099 44.4604 73.496 44.5667 73.4049L45.6833 72.311C45.7897 72.2047 45.9036 72.1515 46.0251 72.1515C46.1467 72.1515 46.253 72.2047 46.3442 72.311L47.438 73.4049C47.5443 73.496 47.5975 73.6099 47.5975 73.7467C47.6127 73.8986 47.5671 74.0277 47.4608 74.1341L46.367 75.2279ZM47.6628 70.7615C47.5565 70.7615 47.4729 70.7311 47.4122 70.6703C47.3514 70.6248 47.321 70.526 47.321 70.3741V67.5484C47.321 67.3357 47.3818 67.1838 47.5033 67.0927C47.6249 66.9863 47.792 66.9331 48.0047 66.9331C48.5971 66.9331 49.1213 66.9255 49.577 66.9104C50.0328 66.88 50.4505 66.842 50.8303 66.7964C51.2253 66.7508 51.6127 66.6977 51.9925 66.6369L49.9416 64.8367C49.7137 64.6392 49.5618 64.4493 49.4859 64.267C49.4099 64.0847 49.3719 63.8568 49.3719 63.5834L49.3947 62.2161C49.3947 61.8819 49.4555 61.6312 49.577 61.4641C49.7137 61.297 49.9036 61.1603 50.1467 61.0539C50.9367 60.6893 51.757 60.431 52.6078 60.2791C53.4737 60.1272 54.3169 60.0513 55.1372 60.0513C57.0818 60.0513 58.4946 60.3247 59.3757 60.8716C60.2568 61.4185 60.6974 62.1781 60.6974 63.1504C60.6974 63.6061 60.6063 64.0163 60.424 64.3809C60.2568 64.7303 59.991 65.0873 59.6264 65.4519C59.2618 65.8014 58.7984 66.2115 58.2363 66.6825C58.6313 66.7736 59.0415 66.842 59.4669 66.8876C59.8922 66.918 60.31 66.9331 60.7202 66.9331H62.3609C62.604 66.9331 62.7255 67.0547 62.7255 67.2977V70.0551C62.7255 70.526 62.4824 70.7615 61.9963 70.7615H60.4695C59.8315 70.7615 59.2466 70.7387 58.7149 70.6931C58.1984 70.6475 57.7122 70.564 57.2565 70.4425C56.8159 70.3209 56.3981 70.169 56.0031 69.9867C55.6082 69.8044 55.2132 69.5765 54.8182 69.3031C54.3624 69.5917 53.9143 69.8348 53.4737 70.0323C53.0483 70.2146 52.5774 70.3665 52.0609 70.488C51.5443 70.5944 50.9291 70.6627 50.2151 70.6931C49.5162 70.7387 48.6655 70.7615 47.6628 70.7615ZM55.2284 66.0672C55.8968 65.657 56.4285 65.2848 56.8235 64.9506C57.2185 64.6012 57.4236 64.2974 57.4388 64.0391C57.4388 63.8568 57.3704 63.6897 57.2337 63.5378C57.1121 63.3859 56.8843 63.2643 56.55 63.1732C56.2158 63.0668 55.7449 63.0137 55.1372 63.0137C54.6966 63.0137 54.2409 63.0592 53.7699 63.1504C53.299 63.2263 52.7977 63.3555 52.266 63.5378L55.2284 66.0672ZM55.5018 57.8864C55.4107 57.9776 55.2891 58.0231 55.1372 58.0231C54.9853 58.008 54.8562 57.9548 54.7498 57.8636L53.5421 56.6559C53.4357 56.5495 53.3826 56.428 53.3826 56.2913C53.3826 56.1394 53.4357 56.0102 53.5421 55.9039L54.7498 54.6961C54.8562 54.5898 54.9777 54.5366 55.1144 54.5366C55.2663 54.5214 55.3879 54.5746 55.479 54.6961L56.664 55.9039C56.9374 56.1773 56.9526 56.4356 56.7096 56.6787L55.5018 57.8864ZM82.3881 70.7615C81.3703 70.7615 80.4967 70.6703 79.7675 70.488C79.0535 70.2905 78.4155 69.9791 77.8534 69.5537L80.1321 66.5002C80.3752 66.6065 80.6107 66.6901 80.8385 66.7508C81.0816 66.8116 81.3475 66.8572 81.6361 66.8876C81.94 66.918 82.3046 66.9331 82.7299 66.9331C82.9578 66.9331 83.0717 67.0471 83.0717 67.275V70.0779C83.0717 70.5336 82.8439 70.7615 82.3881 70.7615ZM61.6741 70.7615C61.5374 70.7615 61.431 70.7311 61.355 70.6703C61.2791 70.6248 61.2411 70.5108 61.2411 70.3285V67.5256C61.2411 67.3129 61.3019 67.161 61.4234 67.0699C61.5449 66.9787 61.7121 66.9331 61.9247 66.9331C62.4565 66.9331 62.859 66.8952 63.1325 66.8192C63.4059 66.7281 63.5882 66.5382 63.6794 66.2495C63.7705 65.9609 63.8161 65.5279 63.8161 64.9506V63.4238C63.8161 62.9985 64.0136 62.7858 64.4086 62.7858H66.2772C66.6722 62.7858 66.8697 62.9985 66.8697 63.4238V64.6544C66.8697 65.2469 66.9228 65.7102 67.0292 66.0444C67.1355 66.3786 67.3482 66.6141 67.6672 66.7508C67.9863 66.8724 68.4572 66.9331 69.0801 66.9331H74.9137C75.962 66.9331 76.752 66.7964 77.2837 66.523C77.8154 66.2495 78.0812 65.8393 78.0812 65.2924C78.0812 64.8367 77.8685 64.4645 77.4432 64.1758C77.033 63.872 76.4937 63.7277 75.8253 63.7429C75.1568 63.7581 74.4884 63.9252 73.8199 64.2442C73.1667 64.5632 72.5438 64.9962 71.9513 65.5431C71.3589 66.09 70.8195 66.7053 70.3334 67.3889L67.8495 67.2977C68.5028 65.8545 69.2776 64.624 70.1739 63.6061C71.0854 62.5883 72.0653 61.8135 73.1135 61.2818C74.1617 60.7501 75.21 60.4842 76.2582 60.4842C77.3065 60.4842 78.1648 60.7045 78.8332 61.1451C79.5169 61.5704 80.0258 62.1249 80.36 62.8086C80.6942 63.4922 80.8613 64.2214 80.8613 64.9962C80.8613 66.2115 80.5803 67.2522 80.0182 68.1181C79.4713 68.9688 78.6661 69.6221 77.6027 70.0779C76.5393 70.5336 75.2404 70.7615 73.706 70.7615H69.1484C68.2217 70.7615 67.409 70.6248 66.7102 70.3513C66.0265 70.0627 65.4872 69.5613 65.0922 68.8473C64.7884 69.5765 64.3175 70.0779 63.6794 70.3513C63.0565 70.6248 62.3881 70.7615 61.6741 70.7615ZM81.9343 70.7615C81.7064 70.7615 81.5925 70.6475 81.5925 70.4197V67.6168C81.5925 67.161 81.8204 66.9331 82.2761 66.9331C82.7471 66.9331 83.1269 66.8648 83.4155 66.7281C83.7042 66.5913 83.9093 66.3559 84.0308 66.0216C84.1523 65.6722 84.2131 65.1861 84.2131 64.5632V54.0581C84.2131 53.9062 84.2587 53.7846 84.3498 53.6935C84.4562 53.5871 84.5853 53.534 84.7372 53.534H86.7653C86.9324 53.534 87.0616 53.5871 87.1527 53.6935C87.2439 53.7846 87.2894 53.9062 87.2894 54.0581V64.5176C87.2894 65.5355 87.2059 66.4394 87.0388 67.2294C86.8868 68.0194 86.6134 68.6802 86.2184 69.2119C85.8234 69.7436 85.2765 70.1386 84.5777 70.3969C83.8941 70.6551 83.0129 70.7767 81.9343 70.7615ZM91.2654 70.7387C91.1134 70.7387 90.9843 70.6931 90.878 70.602C90.7868 70.4956 90.7412 70.3665 90.7412 70.2146V54.0581C90.7412 53.9062 90.7868 53.7846 90.878 53.6935C90.9843 53.5871 91.1134 53.534 91.2654 53.534H93.2935C93.4606 53.534 93.5897 53.5871 93.6809 53.6935C93.772 53.7846 93.8176 53.9062 93.8176 54.0581V70.2146C93.8176 70.3665 93.772 70.4956 93.6809 70.602C93.5897 70.6931 93.4606 70.7387 93.2935 70.7387H91.2654ZM105.244 70.6931C103.862 70.6931 102.783 70.2677 102.008 69.417C101.234 68.5511 100.839 67.3889 100.823 65.9305C100.823 65.1405 100.945 64.3885 101.188 63.6745C101.431 62.9605 101.773 62.33 102.213 61.7831C102.669 61.2362 103.193 60.8032 103.786 60.4842C104.378 60.1652 105.009 60.0057 105.677 60.0057C106.346 60.0057 106.961 60.1652 107.523 60.4842C108.085 60.8032 108.571 61.2362 108.981 61.7831C109.407 62.33 109.733 62.9453 109.961 63.6289C110.189 64.3126 110.303 65.0266 110.303 65.771C110.303 66.9104 110.098 67.8447 109.688 68.5739C109.278 69.2879 108.731 69.8196 108.047 70.169C107.379 70.5184 106.642 70.6931 105.837 70.6931H105.244ZM105.358 67.1154H105.882C106.414 67.1154 106.832 66.9939 107.136 66.7508C107.455 66.4926 107.607 66.1128 107.591 65.6115C107.591 64.9582 107.401 64.4265 107.022 64.0163C106.642 63.5909 106.171 63.3783 105.609 63.3783C105.229 63.3783 104.887 63.4846 104.583 63.6973C104.28 63.91 104.036 64.191 103.854 64.5404C103.687 64.8747 103.603 65.2317 103.603 65.6115C103.603 66.0976 103.763 66.4698 104.082 66.7281C104.401 66.9863 104.826 67.1154 105.358 67.1154ZM104.242 58.0459C104.15 58.1371 104.029 58.1827 103.877 58.1827C103.74 58.1827 103.619 58.1295 103.512 58.0231L102.373 56.8838C102.282 56.7774 102.229 56.6559 102.213 56.5192C102.213 56.3824 102.267 56.2533 102.373 56.1318L103.512 54.9924C103.619 54.886 103.74 54.8329 103.877 54.8329C104.014 54.8329 104.135 54.886 104.242 54.9924L105.381 56.1318C105.487 56.2533 105.54 56.39 105.54 56.5419C105.556 56.6787 105.51 56.8002 105.404 56.9065L104.242 58.0459ZM107.751 58.0459C107.645 58.1523 107.523 58.1979 107.386 58.1827C107.25 58.1675 107.128 58.1143 107.022 58.0231L105.859 56.8838C105.768 56.7774 105.723 56.6559 105.723 56.5192C105.723 56.3672 105.768 56.2381 105.859 56.1318L107.022 54.9924C107.128 54.886 107.242 54.8329 107.363 54.8329C107.5 54.8329 107.622 54.886 107.728 54.9924L108.867 56.1318C108.989 56.2533 109.05 56.3824 109.05 56.5192C109.065 56.6559 109.012 56.785 108.89 56.9065L107.751 58.0459ZM110.503 76.3673C110.26 76.3673 110.085 76.2989 109.979 76.1622C109.872 76.0406 109.819 75.8735 109.819 75.6608V73.5644C109.819 73.3365 109.888 73.1694 110.024 73.063C110.161 72.9719 110.351 72.9263 110.594 72.9263H111.164C112.136 72.9263 112.903 72.7516 113.465 72.4022C114.043 72.0528 114.46 71.5515 114.719 70.8982C114.977 70.2602 115.106 69.5006 115.106 68.6194C115.106 67.875 115.022 67.0927 114.855 66.2723C114.688 65.4519 114.483 64.6164 114.24 63.7657C114.164 63.4162 114.164 63.1732 114.24 63.0364C114.331 62.8845 114.513 62.7706 114.787 62.6946L116.542 62.2617C116.769 62.2009 116.952 62.2161 117.088 62.3072C117.225 62.3984 117.332 62.5959 117.407 62.8997C117.651 63.8568 117.863 64.8747 118.046 65.9533C118.243 67.0167 118.342 68.0346 118.342 69.0068C118.342 70.4197 118.084 71.6806 117.567 72.7896C117.05 73.8986 116.283 74.7721 115.265 75.4102C114.248 76.0482 113.002 76.3673 111.528 76.3673H110.503ZM120.97 76.2533C120.469 76.2533 120.089 76.1926 119.83 76.071C119.587 75.9647 119.466 75.7216 119.466 75.3418V73.4732C119.466 73.1694 119.542 72.9567 119.694 72.8352C119.861 72.7136 120.134 72.6529 120.514 72.6529H122.816C123.879 72.6529 124.737 72.4782 125.391 72.1287C126.044 71.7945 126.5 71.2628 126.758 70.5336H124.867C123.864 70.5336 123.006 70.3589 122.292 70.0095C121.578 69.6601 121.031 69.1663 120.651 68.5283C120.271 67.875 120.081 67.123 120.081 66.2723C120.081 65.6342 120.18 65.019 120.377 64.4265C120.59 63.834 120.894 63.3023 121.289 62.8314C121.699 62.3604 122.193 61.9882 122.77 61.7148C123.363 61.4261 124.031 61.2818 124.775 61.2818C126.249 61.2818 127.404 61.7755 128.239 62.763C129.09 63.7353 129.576 65.1253 129.698 66.9331H131.156C131.384 66.9331 131.498 67.0471 131.498 67.275V70.0779C131.498 70.5336 131.27 70.7615 130.814 70.7615H129.401C128.961 72.6149 128.171 73.9897 127.031 74.8861C125.907 75.7976 124.418 76.2533 122.565 76.2533H120.97ZM124.821 67.161L126.895 67.1382C126.743 66.2267 126.447 65.5507 126.006 65.1101C125.565 64.6544 125.034 64.4265 124.411 64.4265C124.031 64.4265 123.712 64.4949 123.454 64.6316C123.211 64.7683 123.021 64.9506 122.884 65.1785C122.762 65.3912 122.702 65.6115 122.702 65.8393C122.702 66.3103 122.892 66.6521 123.271 66.8648C123.666 67.0623 124.183 67.161 124.821 67.161ZM130.384 70.7615C130.262 70.7615 130.171 70.7235 130.11 70.6475C130.049 70.5716 130.019 70.4804 130.019 70.3741V67.5256C130.019 67.3129 130.08 67.161 130.201 67.0699C130.323 66.9787 130.49 66.9331 130.703 66.9331H130.862C131.424 66.9331 131.834 66.7888 132.093 66.5002C132.351 66.1963 132.48 65.7254 132.48 65.0873C132.48 64.905 132.465 64.7151 132.435 64.5176C132.419 64.3202 132.389 64.1151 132.343 63.9024L131.956 62.1249C131.91 61.8515 131.933 61.654 132.024 61.5325C132.131 61.4109 132.298 61.3274 132.526 61.2818L134.258 60.8944C134.744 60.7881 135.04 60.9931 135.146 61.5097L135.625 63.8796C135.701 64.2138 135.754 64.5708 135.784 64.9506C135.83 65.3304 135.853 65.657 135.853 65.9305C135.853 67.3737 135.488 68.5435 134.759 69.4398C134.03 70.3209 132.951 70.7615 131.523 70.7615H130.384ZM133.688 59.117C133.597 59.2081 133.475 59.2537 133.323 59.2537C133.171 59.2385 133.042 59.1853 132.936 59.0942L131.728 57.8864C131.622 57.7801 131.569 57.6585 131.569 57.5218C131.569 57.3699 131.622 57.2408 131.728 57.1344L132.936 55.9267C133.042 55.8203 133.164 55.7672 133.301 55.7672C133.452 55.752 133.574 55.8051 133.665 55.9267L134.85 57.1344C135.124 57.4079 135.139 57.6661 134.896 57.9092L133.688 59.117Z" fill="white"/>
<path d="M20.236 99.667C19.6579 99.667 19.2182 99.5327 18.917 99.264C18.6157 98.9871 18.4325 98.5353 18.3674 97.9083C18.1638 98.1933 17.9074 98.4131 17.598 98.5678C17.2886 98.7144 16.9588 98.7877 16.6087 98.7877C16.055 98.7877 15.6235 98.637 15.3141 98.3358C15.0047 98.0345 14.85 97.6315 14.85 97.1267C14.85 96.8254 14.9152 96.5405 15.0454 96.2718C15.1839 95.995 15.4037 95.7385 15.7049 95.5024C16.0143 95.2662 16.4214 95.0546 16.9262 94.8673L18.2697 94.3421V93.8048C18.2697 93.7315 18.2982 93.6704 18.3552 93.6216C18.4203 93.5646 18.4895 93.5361 18.5628 93.5361H19.0269C19.1002 93.5361 19.1612 93.5646 19.2101 93.6216C19.2589 93.6704 19.2834 93.7315 19.2834 93.8048V97.3465C19.2834 97.8106 19.3566 98.12 19.5032 98.2747C19.6579 98.4213 19.9347 98.4946 20.3337 98.4946H20.8466C20.8955 98.4946 20.9321 98.519 20.9565 98.5678C20.9891 98.6085 21.0054 98.6533 21.0054 98.7022V99.3617C21.0054 99.5652 20.8914 99.667 20.6634 99.667H20.236ZM16.8652 97.7618C17.1583 97.7618 17.4066 97.7007 17.6102 97.5786C17.8219 97.4483 17.9847 97.2814 18.0987 97.0778C18.2127 96.8662 18.2697 96.6545 18.2697 96.4428V95.3192L17.1827 95.6978C16.7431 95.8525 16.4174 96.0357 16.2057 96.2474C15.994 96.4509 15.8881 96.683 15.8881 96.9435C15.8881 97.204 15.9777 97.4076 16.1568 97.5542C16.3359 97.6926 16.5721 97.7618 16.8652 97.7618ZM18.0254 92.5224C17.9847 92.5631 17.9359 92.5834 17.8789 92.5834C17.8219 92.5834 17.7689 92.559 17.7201 92.5102L17.2804 92.0583C17.2397 92.0094 17.2194 91.9606 17.2194 91.9117C17.2194 91.8547 17.2397 91.8018 17.2804 91.753L17.7201 91.3011C17.7689 91.2522 17.8219 91.2278 17.8789 91.2278C17.9359 91.2278 17.9847 91.2522 18.0254 91.3011L18.4773 91.753C18.5262 91.7937 18.5506 91.8466 18.5506 91.9117C18.5587 91.9687 18.5384 92.0217 18.4895 92.0705L18.0254 92.5224ZM19.8452 92.5224C19.8044 92.5712 19.7556 92.5916 19.6986 92.5834C19.6416 92.5753 19.5887 92.5509 19.5398 92.5102L19.0757 92.0583C19.035 92.0176 19.0147 91.9687 19.0147 91.9117C19.0147 91.8466 19.035 91.7937 19.0757 91.753L19.5398 91.3011C19.5887 91.2522 19.6375 91.2278 19.6864 91.2278C19.7352 91.2278 19.7841 91.2522 19.8329 91.3011L20.2848 91.753C20.3337 91.7937 20.3581 91.8466 20.3581 91.9117C20.3581 91.9687 20.3337 92.0217 20.2848 92.0705L19.8452 92.5224ZM21.1434 99.667C21.0131 99.667 20.948 99.6019 20.948 99.4716V98.8365C20.948 98.7307 20.9805 98.6493 21.0457 98.5923C21.1027 98.5271 21.1841 98.4946 21.2899 98.4946C21.6319 98.4946 21.9291 98.4905 22.1815 98.4823C22.442 98.4661 22.6659 98.4457 22.8532 98.4213C23.0486 98.3887 23.2155 98.3561 23.3539 98.3236C23.1992 98.2014 23.0405 98.059 22.8776 97.8961C22.7229 97.7251 22.5926 97.5338 22.4868 97.3221C22.3891 97.1023 22.3362 96.8539 22.328 96.5771C22.328 96.1374 22.4298 95.7588 22.6334 95.4413C22.845 95.1238 23.1178 94.8795 23.4516 94.7085C23.7936 94.5294 24.16 94.4398 24.5508 94.4398C24.9335 94.4398 25.2795 94.5294 25.5889 94.7085C25.8983 94.8795 26.1466 95.1197 26.3339 95.4291C26.5212 95.7385 26.6148 96.0927 26.6148 96.4916C26.6148 96.8662 26.5212 97.2 26.3339 97.4931C26.1548 97.7781 25.8942 98.059 25.5523 98.3358C25.8128 98.3846 26.0449 98.4213 26.2484 98.4457C26.452 98.462 26.6759 98.4742 26.9201 98.4823C27.1644 98.4905 27.4738 98.4946 27.8483 98.4946C27.9053 98.4946 27.9501 98.5149 27.9827 98.5556C28.0234 98.5882 28.0437 98.633 28.0437 98.69V99.2762C28.0437 99.5367 27.9135 99.667 27.6529 99.667C27.2132 99.667 26.8387 99.6589 26.5293 99.6426C26.2281 99.6182 25.9594 99.5856 25.7232 99.5449C25.4953 99.5042 25.2754 99.4512 25.0637 99.3861C24.8521 99.3128 24.62 99.2192 24.3676 99.1052C24.1559 99.2111 23.9564 99.3006 23.7692 99.3739C23.5819 99.4472 23.3743 99.5042 23.1463 99.5449C22.9183 99.5856 22.6456 99.6182 22.328 99.6426C22.0105 99.6589 21.6156 99.667 21.1434 99.667ZM24.5019 98.006C24.8765 97.8025 25.1574 97.5745 25.3446 97.3221C25.5401 97.0697 25.6378 96.8173 25.6378 96.5649C25.6378 96.2311 25.536 95.9665 25.3324 95.771C25.137 95.5675 24.8602 95.4657 24.5019 95.4657C24.2007 95.4657 23.9279 95.5594 23.6837 95.7466C23.4476 95.9339 23.3295 96.1944 23.3295 96.5283C23.3295 96.8621 23.4394 97.143 23.6592 97.371C23.8791 97.5908 24.16 97.8025 24.5019 98.006ZM24.7096 93.2185C24.6689 93.2592 24.62 93.2796 24.563 93.2796C24.506 93.2714 24.4531 93.247 24.4042 93.2063L23.9401 92.7422C23.8994 92.6934 23.8791 92.6404 23.8791 92.5834C23.8791 92.5265 23.8994 92.4776 23.9401 92.4369L24.4042 91.9728C24.4531 91.9321 24.5019 91.9117 24.5508 91.9117C24.6078 91.9036 24.6566 91.9239 24.6974 91.9728L25.1615 92.4369C25.2754 92.5509 25.2795 92.6567 25.1737 92.7544L24.7096 93.2185ZM28.1675 99.667C28.0453 99.667 27.9843 99.6059 27.9843 99.4838V98.8609C27.9843 98.6167 28.1064 98.4946 28.3507 98.4946C28.6356 98.4946 28.8718 98.4538 29.059 98.3724C29.2463 98.291 29.3847 98.1404 29.4743 97.9205C29.5638 97.7007 29.6086 97.3872 29.6086 96.9801V90.7637C29.6086 90.6823 29.633 90.6172 29.6819 90.5683C29.7389 90.5113 29.8081 90.4828 29.8895 90.4828H30.3292C30.4187 90.4828 30.488 90.5113 30.5368 90.5683C30.5857 90.6172 30.6101 90.6823 30.6101 90.7637V96.8824C30.6101 97.3791 30.5612 97.8066 30.4635 98.1648C30.374 98.5149 30.2274 98.804 30.0239 99.0319C29.8284 99.2518 29.576 99.4146 29.2666 99.5204C28.9654 99.6182 28.599 99.667 28.1675 99.667ZM33.1866 102.647C33.0482 102.647 32.9424 102.618 32.8691 102.561C32.7958 102.513 32.7592 102.431 32.7592 102.317V101.78C32.7592 101.69 32.7877 101.621 32.8447 101.572C32.9017 101.532 32.9912 101.511 33.1134 101.511H33.8339C34.6319 101.511 35.2588 101.352 35.7147 101.035C36.1788 100.717 36.472 100.241 36.5941 99.6059H35.727C35.2303 99.6059 34.7988 99.5327 34.4324 99.3861C34.0741 99.2314 33.7973 99.0075 33.6019 98.7144C33.4146 98.4131 33.321 98.0549 33.321 97.6396C33.321 97.3547 33.3658 97.086 33.4553 96.8336C33.553 96.5812 33.6915 96.3573 33.8706 96.1619C34.0497 95.9665 34.2655 95.8118 34.5179 95.6978C34.7784 95.5838 35.0715 95.5268 35.3972 95.5268C36.1218 95.5268 36.6551 95.7751 36.9971 96.2718C37.3472 96.7684 37.5345 97.5094 37.5589 98.4946H38.5604C38.6825 98.4946 38.7436 98.5556 38.7436 98.6777V99.3006C38.7436 99.5449 38.6214 99.667 38.3772 99.667H37.4856C37.2658 100.725 36.8465 101.487 36.2277 101.951C35.6089 102.415 34.7784 102.647 33.7362 102.647H33.1866ZM35.7392 98.5312H36.6796C36.6551 97.888 36.533 97.3954 36.3132 97.0534C36.0933 96.7115 35.7555 96.5405 35.2995 96.5405C35.0308 96.5405 34.8151 96.5934 34.6522 96.6992C34.4894 96.8051 34.3672 96.9354 34.2858 97.0901C34.2125 97.2448 34.1759 97.3995 34.1759 97.5542C34.1759 97.888 34.3102 98.1363 34.5789 98.2991C34.8558 98.4538 35.2425 98.5312 35.7392 98.5312ZM34.237 94.6475C34.1637 94.6637 34.1108 94.6556 34.0782 94.623C34.0456 94.5905 34.0293 94.5416 34.0293 94.4765V94.2566C34.0293 94.1589 34.0456 94.0938 34.0782 94.0612C34.1108 94.0205 34.1637 93.992 34.237 93.9757L34.6034 93.8658C34.5219 93.8007 34.4527 93.7152 34.3957 93.6093C34.3469 93.5035 34.3225 93.3854 34.3225 93.2552C34.3225 92.9376 34.4324 92.6771 34.6522 92.4735C34.872 92.27 35.1529 92.1682 35.4949 92.1682C35.6008 92.1682 35.7025 92.1804 35.8002 92.2048C35.9061 92.2211 35.9875 92.2456 36.0445 92.2781C36.1422 92.3351 36.1911 92.4043 36.1911 92.4857V92.7789C36.1911 92.8847 36.1463 92.9173 36.0567 92.8766C35.9671 92.8359 35.8694 92.8074 35.7636 92.7911C35.6578 92.7666 35.556 92.7544 35.4583 92.7544C35.2954 92.7544 35.1611 92.7911 35.0552 92.8643C34.9575 92.9376 34.9087 93.0394 34.9087 93.1697C34.9087 93.3407 34.9982 93.4669 35.1774 93.5483C35.3646 93.6216 35.6048 93.6256 35.8979 93.5605L36.301 93.4628C36.3905 93.4384 36.4516 93.4424 36.4842 93.475C36.5167 93.4994 36.533 93.5483 36.533 93.6216V93.8658C36.533 93.9879 36.4801 94.0653 36.3742 94.0979L34.237 94.6475ZM43.3226 99.7403C43.1353 99.7403 42.9603 99.724 42.7974 99.6914C42.6346 99.667 42.4595 99.6222 42.2723 99.5571C42.0932 99.4838 41.8774 99.382 41.625 99.2518C41.3726 99.1133 41.055 98.9342 40.6724 98.7144C40.477 98.9994 40.2775 99.2111 40.0739 99.3495C39.8704 99.4797 39.6668 99.5652 39.4633 99.6059C39.2679 99.6466 39.0684 99.667 38.8648 99.667C38.7427 99.667 38.6817 99.6059 38.6817 99.4838V98.8609C38.6817 98.6167 38.8038 98.4946 39.048 98.4946C39.219 98.4946 39.3697 98.4701 39.4999 98.4213C39.6302 98.3724 39.7645 98.2706 39.903 98.1159C40.0495 97.9613 40.2164 97.717 40.4037 97.3832C40.7212 96.8377 41.0143 96.4224 41.283 96.1374C41.5599 95.8525 41.8285 95.6571 42.0891 95.5512C42.3496 95.4454 42.6183 95.3924 42.8951 95.3924C43.2778 95.3924 43.632 95.4983 43.9577 95.71C44.2915 95.9135 44.5561 96.1944 44.7515 96.5527C44.9469 96.9028 45.0446 97.314 45.0446 97.7862C45.0446 98.0875 45.0039 98.3602 44.9225 98.6045C44.8411 98.8487 44.723 99.0564 44.5683 99.2273C44.4136 99.3983 44.2304 99.5286 44.0187 99.6182C43.8071 99.6996 43.575 99.7403 43.3226 99.7403ZM43.3592 98.6533C43.5465 98.6533 43.7053 98.5963 43.8355 98.4823C43.974 98.3684 44.0432 98.1485 44.0432 97.8228C44.0513 97.546 43.9943 97.3058 43.8722 97.1023C43.7582 96.8987 43.6035 96.7399 43.4081 96.626C43.2208 96.5038 43.0173 96.4428 42.7974 96.4428C42.6427 96.4428 42.488 96.4753 42.3333 96.5405C42.1868 96.6056 42.0239 96.7318 41.8448 96.9191C41.6738 97.1063 41.4703 97.3954 41.2342 97.7862C41.6576 98.0386 41.9914 98.2299 42.2356 98.3602C42.488 98.4823 42.6957 98.5638 42.8585 98.6045C43.0295 98.637 43.1964 98.6533 43.3592 98.6533ZM46.9708 102.647C46.8649 102.647 46.7835 102.623 46.7265 102.574C46.6695 102.525 46.641 102.443 46.641 102.329V101.792C46.641 101.694 46.6695 101.621 46.7265 101.572C46.7835 101.532 46.8731 101.511 46.9952 101.511H47.6058C48.3142 101.511 48.8841 101.385 49.3157 101.133C49.7472 100.88 50.0566 100.489 50.2439 99.9601C50.4393 99.439 50.5207 98.7714 50.4881 97.9572L51.3797 97.9816C51.3797 99.0075 51.2494 99.8665 50.9889 100.559C50.7283 101.259 50.3131 101.78 49.7431 102.122C49.1813 102.472 48.4404 102.647 47.5204 102.647H46.9708ZM50.4515 97.9694C50.4352 97.4483 50.3049 97.0331 50.0607 96.7237C49.8164 96.4143 49.4948 96.2596 49.0958 96.2596C48.819 96.2596 48.591 96.3166 48.4119 96.4306C48.2328 96.5364 48.0984 96.6748 48.0089 96.8458C47.9275 97.0168 47.8867 97.1918 47.8867 97.371C47.8867 97.6641 47.9926 97.8961 48.2043 98.0671C48.416 98.2299 48.6847 98.3114 49.0103 98.3114C49.3686 98.3114 49.6902 98.2544 49.9752 98.1404C50.2601 98.0264 50.4515 97.9002 50.5492 97.7618L50.6713 98.7266C50.5085 98.9302 50.2764 99.0971 49.9752 99.2273C49.6739 99.3495 49.3279 99.4065 48.9371 99.3983C48.5218 99.3902 48.1717 99.2965 47.8867 99.1174C47.6018 98.9302 47.386 98.694 47.2395 98.4091C47.0929 98.1159 47.0196 97.7984 47.0196 97.4564C47.0196 97.147 47.0644 96.8539 47.154 96.5771C47.2517 96.3003 47.3941 96.0601 47.5814 95.8565C47.7687 95.6448 47.9926 95.482 48.2531 95.368C48.5218 95.2459 48.8231 95.1848 49.1569 95.1848C49.5803 95.1848 49.9589 95.2988 50.2927 95.5268C50.6265 95.7466 50.8911 96.0642 51.0866 96.4794C51.282 96.8946 51.3797 97.3954 51.3797 97.9816L50.4515 97.9694ZM62.0837 99.667C61.5056 99.667 61.066 99.5327 60.7647 99.264C60.4635 98.9871 60.2803 98.5353 60.2151 97.9083C60.0116 98.1933 59.7551 98.4131 59.4457 98.5678C59.1363 98.7144 58.8066 98.7877 58.4564 98.7877C57.9028 98.7877 57.4713 98.637 57.1619 98.3358C56.8525 98.0345 56.6978 97.6315 56.6978 97.1267C56.6978 96.8254 56.7629 96.5405 56.8932 96.2718C57.0316 95.995 57.2514 95.7385 57.5527 95.5024C57.8621 95.2662 58.2692 95.0546 58.774 94.8673L60.1174 94.3421V93.8048C60.1174 93.7315 60.1459 93.6704 60.2029 93.6216C60.268 93.5646 60.3373 93.5361 60.4105 93.5361H60.8746C60.9479 93.5361 61.009 93.5646 61.0578 93.6216C61.1067 93.6704 61.1311 93.7315 61.1311 93.8048V97.3465C61.1311 97.8106 61.2044 98.12 61.3509 98.2747C61.5056 98.4213 61.7825 98.4946 62.1814 98.4946H62.6944C62.7432 98.4946 62.7799 98.519 62.8043 98.5678C62.8369 98.6085 62.8531 98.6533 62.8531 98.7022V99.3617C62.8531 99.5652 62.7391 99.667 62.5112 99.667H62.0837ZM58.7129 97.7618C59.006 97.7618 59.2544 97.7007 59.4579 97.5786C59.6696 97.4483 59.8324 97.2814 59.9464 97.0778C60.0604 96.8662 60.1174 96.6545 60.1174 96.4428V95.3192L59.0305 95.6978C58.5908 95.8525 58.2651 96.0357 58.0534 96.2474C57.8417 96.4509 57.7359 96.683 57.7359 96.9435C57.7359 97.204 57.8254 97.4076 58.0046 97.5542C58.1837 97.6926 58.4198 97.7618 58.7129 97.7618ZM59.8732 92.5224C59.8324 92.5631 59.7836 92.5834 59.7266 92.5834C59.6696 92.5834 59.6167 92.559 59.5678 92.5102L59.1282 92.0583C59.0875 92.0094 59.0671 91.9606 59.0671 91.9117C59.0671 91.8547 59.0875 91.8018 59.1282 91.753L59.5678 91.3011C59.6167 91.2522 59.6696 91.2278 59.7266 91.2278C59.7836 91.2278 59.8324 91.2522 59.8732 91.3011L60.325 91.753C60.3739 91.7937 60.3983 91.8466 60.3983 91.9117C60.4065 91.9687 60.3861 92.0217 60.3373 92.0705L59.8732 92.5224ZM61.6929 92.5224C61.6522 92.5712 61.6033 92.5916 61.5463 92.5834C61.4893 92.5753 61.4364 92.5509 61.3876 92.5102L60.9235 92.0583C60.8828 92.0176 60.8624 91.9687 60.8624 91.9117C60.8624 91.8466 60.8828 91.7937 60.9235 91.753L61.3876 91.3011C61.4364 91.2522 61.4853 91.2278 61.5341 91.2278C61.583 91.2278 61.6318 91.2522 61.6807 91.3011L62.1326 91.753C62.1814 91.7937 62.2058 91.8466 62.2058 91.9117C62.2058 91.9687 62.1814 92.0217 62.1326 92.0705L61.6929 92.5224ZM62.9789 99.667C62.8568 99.667 62.7957 99.6019 62.7957 99.4716V98.8609C62.7957 98.6167 62.9178 98.4946 63.1621 98.4946C63.6669 98.4946 64.017 98.3968 64.2124 98.2014C64.416 98.006 64.5177 97.6519 64.5177 97.1389V95.9298C64.5177 95.7507 64.6073 95.6611 64.7864 95.6611H65.2749C65.4541 95.6611 65.5436 95.7507 65.5436 95.9298V97.1389C65.5436 97.489 65.5925 97.7658 65.6902 97.9694C65.796 98.1648 65.9629 98.3032 66.1909 98.3846C66.427 98.4579 66.7446 98.4946 67.1435 98.4946C67.2657 98.4946 67.3267 98.5556 67.3267 98.6777V99.3006C67.3267 99.5449 67.2046 99.667 66.9603 99.667C66.5125 99.667 66.1054 99.5937 65.739 99.4472C65.3726 99.2925 65.0877 99.0075 64.8841 98.5923C64.705 98.9994 64.4404 99.2803 64.0903 99.435C63.7483 99.5897 63.3778 99.667 62.9789 99.667ZM64.3223 101.89C64.2816 101.922 64.2328 101.935 64.1758 101.926C64.1188 101.926 64.0699 101.91 64.0292 101.878L63.5773 101.426C63.5366 101.385 63.5163 101.336 63.5163 101.279C63.5163 101.222 63.5366 101.173 63.5773 101.133L64.0292 100.681C64.0699 100.64 64.1147 100.62 64.1636 100.62C64.2205 100.62 64.2735 100.64 64.3223 100.681L64.762 101.133C64.8108 101.173 64.8353 101.222 64.8353 101.279C64.8434 101.336 64.8231 101.389 64.7742 101.438L64.3223 101.89ZM65.9955 101.89C65.9629 101.922 65.9182 101.935 65.8612 101.926C65.8042 101.926 65.7553 101.91 65.7146 101.878L65.2505 101.426C65.2098 101.385 65.1894 101.336 65.1894 101.279C65.1894 101.222 65.2098 101.173 65.2505 101.133L65.7146 100.681C65.7553 100.64 65.8001 100.62 65.849 100.62C65.9059 100.62 65.9507 100.64 65.9833 100.681L66.4352 101.133C66.484 101.173 66.5085 101.222 66.5085 101.279C66.5166 101.336 66.4962 101.389 66.4474 101.438L65.9955 101.89ZM71.1637 99.7159C70.9846 99.7159 70.7892 99.6914 70.5775 99.6426C70.3658 99.5937 70.1623 99.492 69.9668 99.3373C69.7796 99.1826 69.6208 98.9505 69.4905 98.6411C69.3603 98.9098 69.1893 99.1174 68.9776 99.264C68.7659 99.4105 68.5298 99.5164 68.2692 99.5815C68.0087 99.6385 67.7359 99.667 67.451 99.667C67.3288 99.667 67.2678 99.6019 67.2678 99.4716V98.8609C67.2678 98.6167 67.3899 98.4946 67.6342 98.4946C68.1715 98.4946 68.542 98.4131 68.7455 98.2503C68.9572 98.0793 69.0631 97.7618 69.0631 97.2977V96.3084C69.0631 96.2189 69.0834 96.1497 69.1241 96.1008C69.173 96.0519 69.2422 96.0275 69.3318 96.0275H69.8081C69.9791 96.0275 70.0645 96.1212 70.0645 96.3084V97.3343C70.0645 97.7984 70.1704 98.1159 70.3821 98.2869C70.5938 98.4579 70.8665 98.5434 71.2004 98.5434C71.6237 98.5434 71.9087 98.4376 72.0553 98.2259C72.21 98.0142 72.2873 97.7007 72.2873 97.2855V96.3328C72.2873 96.2433 72.3077 96.17 72.3484 96.113C72.3972 96.056 72.4664 96.0275 72.556 96.0275H73.0201C73.1097 96.0275 73.1748 96.056 73.2155 96.113C73.2644 96.17 73.2888 96.2433 73.2888 96.3328V97.3221C73.2888 97.7699 73.3743 98.0875 73.5453 98.2747C73.7162 98.4538 74.0094 98.5434 74.4246 98.5434C74.848 98.5434 75.133 98.4376 75.2795 98.2259C75.4261 98.0142 75.4993 97.7007 75.4993 97.2855V96.3084C75.4993 96.227 75.5197 96.1619 75.5604 96.113C75.6011 96.056 75.6622 96.0275 75.7436 96.0275H76.2566C76.338 96.0275 76.399 96.056 76.4397 96.113C76.4886 96.1619 76.513 96.227 76.513 96.3084V97.2977C76.513 97.7373 76.6189 98.0467 76.8306 98.2259C77.0423 98.405 77.4086 98.4946 77.9297 98.4946H78.1862C78.3083 98.4946 78.3694 98.5556 78.3694 98.6777V99.3006C78.3694 99.5449 78.2432 99.667 77.9908 99.667C77.486 99.667 77.0626 99.6059 76.7206 99.4838C76.3787 99.3535 76.11 99.15 75.9146 98.8732C75.7843 99.1663 75.5808 99.382 75.3039 99.5204C75.0271 99.6507 74.7259 99.7159 74.4002 99.7159C74.0012 99.7159 73.6592 99.6507 73.3743 99.5204C73.0893 99.382 72.8654 99.1663 72.7026 98.8732C72.5641 99.1744 72.3565 99.3902 72.0797 99.5204C71.811 99.6507 71.5057 99.7159 71.1637 99.7159ZM78.5069 99.667C78.3766 99.667 78.3115 99.6019 78.3115 99.4716V98.8365C78.3115 98.7307 78.3441 98.6493 78.4092 98.5923C78.4662 98.5271 78.5476 98.4946 78.6535 98.4946C78.9954 98.4946 79.2926 98.4905 79.545 98.4823C79.8055 98.4661 80.0295 98.4457 80.2167 98.4213C80.4121 98.3887 80.579 98.3561 80.7175 98.3236C80.5628 98.2014 80.404 98.059 80.2411 97.8961C80.0864 97.7251 79.9562 97.5338 79.8503 97.3221C79.7526 97.1023 79.6997 96.8539 79.6916 96.5771C79.6916 96.1374 79.7933 95.7588 79.9969 95.4413C80.2086 95.1238 80.4813 94.8795 80.8152 94.7085C81.1571 94.5294 81.5235 94.4398 81.9143 94.4398C82.297 94.4398 82.643 94.5294 82.9524 94.7085C83.2618 94.8795 83.5102 95.1197 83.6974 95.4291C83.8847 95.7385 83.9783 96.0927 83.9783 96.4916C83.9783 96.8662 83.8847 97.2 83.6974 97.4931C83.5183 97.7781 83.2578 98.059 82.9158 98.3358C83.1763 98.3846 83.4084 98.4213 83.6119 98.4457C83.8155 98.462 84.0394 98.4742 84.2837 98.4823C84.5279 98.4905 84.8373 98.4946 85.2118 98.4946C85.2688 98.4946 85.3136 98.5149 85.3462 98.5556C85.3869 98.5882 85.4073 98.633 85.4073 98.69V99.2762C85.4073 99.5367 85.277 99.667 85.0164 99.667C84.5768 99.667 84.2022 99.6589 83.8928 99.6426C83.5916 99.6182 83.3229 99.5856 83.0868 99.5449C82.8588 99.5042 82.639 99.4512 82.4273 99.3861C82.2156 99.3128 81.9835 99.2192 81.7311 99.1052C81.5194 99.2111 81.32 99.3006 81.1327 99.3739C80.9454 99.4472 80.7378 99.5042 80.5098 99.5449C80.2819 99.5856 80.0091 99.6182 79.6916 99.6426C79.374 99.6589 78.9791 99.667 78.5069 99.667ZM81.8655 98.006C82.24 97.8025 82.5209 97.5745 82.7082 97.3221C82.9036 97.0697 83.0013 96.8173 83.0013 96.5649C83.0013 96.2311 82.8995 95.9665 82.696 95.771C82.5006 95.5675 82.2237 95.4657 81.8655 95.4657C81.5642 95.4657 81.2915 95.5594 81.0472 95.7466C80.8111 95.9339 80.693 96.1944 80.693 96.5283C80.693 96.8621 80.8029 97.143 81.0228 97.371C81.2426 97.5908 81.5235 97.8025 81.8655 98.006ZM82.0731 93.2185C82.0324 93.2592 81.9835 93.2796 81.9265 93.2796C81.8695 93.2714 81.8166 93.247 81.7678 93.2063L81.3037 92.7422C81.263 92.6934 81.2426 92.6404 81.2426 92.5834C81.2426 92.5265 81.263 92.4776 81.3037 92.4369L81.7678 91.9728C81.8166 91.9321 81.8655 91.9117 81.9143 91.9117C81.9713 91.9036 82.0202 91.9239 82.0609 91.9728L82.525 92.4369C82.639 92.5509 82.643 92.6567 82.5372 92.7544L82.0731 93.2185ZM85.5554 99.667C85.4822 99.667 85.4292 99.6426 85.3967 99.5937C85.3641 99.5449 85.3478 99.492 85.3478 99.435V98.7632C85.3478 98.6493 85.3804 98.576 85.4455 98.5434C85.5107 98.5108 85.6002 98.4946 85.7142 98.4946H85.8608C86.2597 98.4946 86.5406 98.3887 86.7035 98.177C86.8744 97.9653 86.9599 97.6478 86.9599 97.2244C86.9599 97.0778 86.9518 96.9435 86.9355 96.8214C86.9274 96.6911 86.9029 96.5527 86.8622 96.4061L86.6546 95.4779C86.6302 95.3884 86.6383 95.3192 86.679 95.2703C86.7197 95.2215 86.7849 95.1848 86.8744 95.1604L87.3141 95.0627C87.5014 95.022 87.6154 95.0953 87.6561 95.2825L87.8759 96.3573C87.9166 96.5201 87.9451 96.7074 87.9614 96.9191C87.9858 97.1308 87.998 97.2895 87.998 97.3954C87.998 98.0793 87.8352 98.6289 87.5095 99.0441C87.192 99.4594 86.7157 99.667 86.0806 99.667H85.5554ZM87.1309 94.0124C87.0902 94.0531 87.0414 94.0734 86.9844 94.0734C86.9274 94.0653 86.8744 94.0409 86.8256 94.0002L86.3615 93.5361C86.3208 93.4872 86.3004 93.4343 86.3004 93.3773C86.3004 93.3203 86.3208 93.2714 86.3615 93.2307L86.8256 92.7666C86.8744 92.7259 86.9233 92.7056 86.9721 92.7056C87.0291 92.6974 87.078 92.7178 87.1187 92.7666L87.5828 93.2307C87.6968 93.3447 87.7009 93.4506 87.595 93.5483L87.1309 94.0124ZM98.8273 99.667C98.2492 99.667 97.8095 99.5327 97.5083 99.264C97.207 98.9871 97.0238 98.5353 96.9587 97.9083C96.7551 98.1933 96.4987 98.4131 96.1893 98.5678C95.8799 98.7144 95.5501 98.7877 95.2 98.7877C94.6463 98.7877 94.2148 98.637 93.9054 98.3358C93.596 98.0345 93.4413 97.6315 93.4413 97.1267C93.4413 96.8254 93.5065 96.5405 93.6367 96.2718C93.7751 95.995 93.995 95.7385 94.2962 95.5024C94.6056 95.2662 95.0127 95.0546 95.5175 94.8673L96.861 94.3421V93.8048C96.861 93.7315 96.8895 93.6704 96.9465 93.6216C97.0116 93.5646 97.0808 93.5361 97.1541 93.5361H97.6182C97.6915 93.5361 97.7525 93.5646 97.8014 93.6216C97.8502 93.6704 97.8747 93.7315 97.8747 93.8048V97.3465C97.8747 97.8106 97.9479 98.12 98.0945 98.2747C98.2492 98.4213 98.526 98.4946 98.925 98.4946H99.4379C99.4868 98.4946 99.5234 98.519 99.5478 98.5678C99.5804 98.6085 99.5967 98.6533 99.5967 98.7022V99.3617C99.5967 99.5652 99.4827 99.667 99.2547 99.667H98.8273ZM95.4565 97.7618C95.7496 97.7618 95.9979 97.7007 96.2015 97.5786C96.4132 97.4483 96.576 97.2814 96.69 97.0778C96.804 96.8662 96.861 96.6545 96.861 96.4428V95.3192L95.774 95.6978C95.3343 95.8525 95.0087 96.0357 94.797 96.2474C94.5853 96.4509 94.4794 96.683 94.4794 96.9435C94.4794 97.204 94.569 97.4076 94.7481 97.5542C94.9272 97.6926 95.1634 97.7618 95.4565 97.7618ZM96.6167 92.5224C96.576 92.5631 96.5271 92.5834 96.4702 92.5834C96.4132 92.5834 96.3602 92.559 96.3114 92.5102L95.8717 92.0583C95.831 92.0094 95.8107 91.9606 95.8107 91.9117C95.8107 91.8547 95.831 91.8018 95.8717 91.753L96.3114 91.3011C96.3602 91.2522 96.4132 91.2278 96.4702 91.2278C96.5271 91.2278 96.576 91.2522 96.6167 91.3011L97.0686 91.753C97.1174 91.7937 97.1419 91.8466 97.1419 91.9117C97.15 91.9687 97.1297 92.0217 97.0808 92.0705L96.6167 92.5224ZM98.4365 92.5224C98.3957 92.5712 98.3469 92.5916 98.2899 92.5834C98.2329 92.5753 98.18 92.5509 98.1311 92.5102L97.667 92.0583C97.6263 92.0176 97.606 91.9687 97.606 91.9117C97.606 91.8466 97.6263 91.7937 97.667 91.753L98.1311 91.3011C98.18 91.2522 98.2288 91.2278 98.2777 91.2278C98.3265 91.2278 98.3754 91.2522 98.4242 91.3011L98.8761 91.753C98.925 91.7937 98.9494 91.8466 98.9494 91.9117C98.9494 91.9687 98.925 92.0217 98.8761 92.0705L98.4365 92.5224ZM99.7224 99.667C99.6003 99.667 99.5392 99.6019 99.5392 99.4716V98.8609C99.5392 98.6167 99.6614 98.4946 99.9056 98.4946C100.41 98.4946 100.761 98.3968 100.956 98.2014C101.16 98.006 101.261 97.6519 101.261 97.1389V95.9298C101.261 95.7507 101.351 95.6611 101.53 95.6611H102.018C102.198 95.6611 102.287 95.7507 102.287 95.9298V97.1389C102.287 97.489 102.336 97.7658 102.434 97.9694C102.54 98.1648 102.706 98.3032 102.934 98.3846C103.171 98.4579 103.488 98.4946 103.887 98.4946C104.009 98.4946 104.07 98.5556 104.07 98.6777V99.3006C104.07 99.5449 103.948 99.667 103.704 99.667C103.256 99.667 102.849 99.5937 102.483 99.4472C102.116 99.2925 101.831 99.0075 101.628 98.5923C101.449 98.9994 101.184 99.2803 100.834 99.435C100.492 99.5897 100.121 99.667 99.7224 99.667ZM101.066 101.89C101.025 101.922 100.976 101.935 100.919 101.926C100.862 101.926 100.813 101.91 100.773 101.878L100.321 101.426C100.28 101.385 100.26 101.336 100.26 101.279C100.26 101.222 100.28 101.173 100.321 101.133L100.773 100.681C100.813 100.64 100.858 100.62 100.907 100.62C100.964 100.62 101.017 100.64 101.066 100.681L101.506 101.133C101.554 101.173 101.579 101.222 101.579 101.279C101.587 101.336 101.567 101.389 101.518 101.438L101.066 101.89ZM102.739 101.89C102.706 101.922 102.662 101.935 102.605 101.926C102.548 101.926 102.499 101.91 102.458 101.878L101.994 101.426C101.953 101.385 101.933 101.336 101.933 101.279C101.933 101.222 101.953 101.173 101.994 101.133L102.458 100.681C102.499 100.64 102.544 100.62 102.593 100.62C102.649 100.62 102.694 100.64 102.727 100.681L103.179 101.133C103.228 101.173 103.252 101.222 103.252 101.279C103.26 101.336 103.24 101.389 103.191 101.438L102.739 101.89ZM104.219 99.667C104.146 99.667 104.093 99.6426 104.06 99.5937C104.028 99.5449 104.011 99.492 104.011 99.435V98.7632C104.011 98.6493 104.044 98.576 104.109 98.5434C104.174 98.5108 104.264 98.4946 104.378 98.4946H104.524C104.923 98.4946 105.204 98.3887 105.367 98.177C105.538 97.9653 105.623 97.6478 105.623 97.2244C105.623 97.0778 105.615 96.9435 105.599 96.8214C105.591 96.6911 105.566 96.5527 105.526 96.4061L105.318 95.4779C105.294 95.3884 105.302 95.3192 105.343 95.2703C105.383 95.2215 105.448 95.1848 105.538 95.1604L105.978 95.0627C106.165 95.022 106.279 95.0953 106.32 95.2825L106.539 96.3573C106.58 96.5201 106.609 96.7074 106.625 96.9191C106.649 97.1308 106.662 97.2895 106.662 97.3954C106.662 98.0793 106.499 98.6289 106.173 99.0441C105.855 99.4594 105.379 99.667 104.744 99.667H104.219ZM104.61 94.4765C104.536 94.4928 104.484 94.4846 104.451 94.452C104.418 94.4195 104.402 94.3706 104.402 94.3055V94.0857C104.402 93.9879 104.418 93.9228 104.451 93.8902C104.484 93.8495 104.536 93.821 104.61 93.8048L104.976 93.6948C104.895 93.6297 104.826 93.5442 104.769 93.4384C104.72 93.3325 104.695 93.2145 104.695 93.0842C104.695 92.7666 104.805 92.5061 105.025 92.3025C105.245 92.099 105.526 91.9972 105.868 91.9972C105.974 91.9972 106.075 92.0094 106.173 92.0339C106.279 92.0501 106.36 92.0746 106.417 92.1071C106.515 92.1641 106.564 92.2333 106.564 92.3148V92.6079C106.564 92.7137 106.519 92.7463 106.429 92.7056C106.34 92.6649 106.242 92.6364 106.136 92.6201C106.031 92.5957 105.929 92.5834 105.831 92.5834C105.668 92.5834 105.534 92.6201 105.428 92.6934C105.33 92.7666 105.281 92.8684 105.281 92.9987C105.281 93.1697 105.371 93.2959 105.55 93.3773C105.737 93.4506 105.978 93.4546 106.271 93.3895L106.674 93.2918C106.763 93.2674 106.824 93.2714 106.857 93.304C106.89 93.3284 106.906 93.3773 106.906 93.4506V93.6948C106.906 93.817 106.853 93.8943 106.747 93.9269L104.61 94.4765ZM111.839 99.667H111.62C111.18 99.667 110.805 99.5937 110.496 99.4472C110.187 99.2925 109.946 99.036 109.775 98.6777C109.604 98.3195 109.519 97.8228 109.519 97.1878V90.7881C109.519 90.6986 109.543 90.6253 109.592 90.5683C109.649 90.5113 109.731 90.4828 109.837 90.4828H110.252C110.358 90.4828 110.431 90.5113 110.472 90.5683C110.512 90.6172 110.533 90.6823 110.533 90.7637V96.9801C110.533 97.4117 110.577 97.7373 110.667 97.9572C110.765 98.1689 110.911 98.3114 111.107 98.3846C111.31 98.4579 111.567 98.4946 111.876 98.4946H112.023C112.145 98.4946 112.206 98.5556 112.206 98.6777V99.3006C112.206 99.5449 112.084 99.667 111.839 99.667ZM123.124 99.667C122.53 99.667 122.033 99.6263 121.634 99.5449C121.235 99.4553 120.873 99.325 120.547 99.1541L121.451 98.2625C121.614 98.3195 121.776 98.3643 121.939 98.3968C122.102 98.4294 122.289 98.4538 122.501 98.4701C122.721 98.4864 122.99 98.4946 123.307 98.4946C123.429 98.4946 123.49 98.5556 123.49 98.6777V99.3006C123.49 99.5449 123.368 99.667 123.124 99.667ZM112.425 99.667C112.344 99.667 112.279 99.6548 112.23 99.6304C112.173 99.5978 112.144 99.5123 112.144 99.3739V98.7632C112.144 98.6493 112.177 98.576 112.242 98.5434C112.307 98.5108 112.397 98.4946 112.511 98.4946C112.885 98.4946 113.166 98.4661 113.354 98.4091C113.549 98.3439 113.679 98.2177 113.744 98.0305C113.809 97.8351 113.842 97.5501 113.842 97.1755V96.3084C113.842 96.1212 113.932 96.0275 114.111 96.0275H114.575C114.754 96.0275 114.844 96.1212 114.844 96.3084V97.1267C114.844 97.4524 114.888 97.717 114.978 97.9205C115.076 98.1241 115.234 98.2706 115.454 98.3602C115.682 98.4498 115.992 98.4946 116.382 98.4946H118.739C119.497 98.4946 120.079 98.3806 120.486 98.1526C120.901 97.9246 121.109 97.5949 121.109 97.1633C121.109 96.8214 120.979 96.5323 120.718 96.2962C120.466 96.0519 120.099 95.9298 119.619 95.9298C119.163 95.9298 118.727 96.0519 118.312 96.2962C117.897 96.5405 117.518 96.8702 117.176 97.2855C116.842 97.7007 116.557 98.1729 116.321 98.7022L115.454 98.6045C115.78 97.7658 116.175 97.0738 116.639 96.5283C117.103 95.9746 117.604 95.5634 118.141 95.2947C118.687 95.0179 119.244 94.8795 119.814 94.8795C120.311 94.8795 120.726 94.9813 121.06 95.1848C121.394 95.3802 121.646 95.6408 121.817 95.9665C121.988 96.2921 122.074 96.6463 122.074 97.029C122.074 97.6478 121.923 98.1526 121.622 98.5434C121.32 98.9261 120.897 99.2111 120.352 99.3983C119.806 99.5774 119.163 99.667 118.422 99.667H116.419C115.89 99.667 115.438 99.5856 115.063 99.4227C114.697 99.2518 114.424 98.9546 114.245 98.5312C114.123 98.9464 113.899 99.2395 113.573 99.4105C113.248 99.5815 112.865 99.667 112.425 99.667ZM123.61 99.667C123.488 99.667 123.427 99.6059 123.427 99.4838V98.8609C123.427 98.6167 123.549 98.4946 123.793 98.4946H125.442C125.922 98.4946 126.354 98.4579 126.736 98.3846C127.127 98.3114 127.494 98.2055 127.836 98.0671C128.178 97.9205 128.524 97.7414 128.874 97.5297L130.046 96.8336L130.987 97.2488L129.008 98.4823C128.731 98.6615 128.471 98.8202 128.226 98.9586C127.982 99.0971 127.722 99.2192 127.445 99.325C127.168 99.4309 126.85 99.5164 126.492 99.5815C126.142 99.6385 125.727 99.667 125.246 99.667H123.61ZM130.669 97.4076V97.3099C130.229 97.3099 129.847 97.2692 129.521 97.1878C129.195 97.1063 128.906 97.0046 128.654 96.8824C128.401 96.7603 128.165 96.6382 127.946 96.516C127.726 96.3939 127.498 96.2921 127.262 96.2107C127.025 96.1212 126.761 96.0764 126.468 96.0764C126.191 96.0764 125.979 96.1252 125.833 96.2229C125.694 96.3206 125.58 96.4387 125.491 96.5771C125.434 96.6504 125.381 96.7074 125.332 96.7481C125.291 96.7807 125.218 96.7969 125.112 96.7969H124.807C124.603 96.7969 124.501 96.7115 124.501 96.5405C124.501 96.3125 124.575 96.0845 124.721 95.8565C124.868 95.6286 125.088 95.4372 125.381 95.2825C125.682 95.1197 126.057 95.0383 126.504 95.0383C126.846 95.0383 127.152 95.083 127.42 95.1726C127.697 95.2622 127.958 95.3721 128.202 95.5024C128.454 95.6245 128.703 95.7507 128.947 95.881C129.199 96.0112 129.468 96.1212 129.753 96.2107C130.046 96.3003 130.38 96.3451 130.754 96.3451H131.341C131.463 96.3451 131.54 96.3695 131.573 96.4183C131.605 96.459 131.622 96.5405 131.622 96.6626V97.1145C131.622 97.204 131.593 97.2773 131.536 97.3343C131.487 97.3832 131.418 97.4076 131.329 97.4076H130.669ZM134.238 99.7036C134.156 99.7036 134.087 99.6792 134.03 99.6304C133.981 99.5734 133.957 99.5042 133.957 99.4227V90.7637C133.957 90.6823 133.981 90.6172 134.03 90.5683C134.087 90.5113 134.156 90.4828 134.238 90.4828H134.69C134.779 90.4828 134.849 90.5113 134.897 90.5683C134.946 90.6172 134.971 90.6823 134.971 90.7637V99.4227C134.971 99.5042 134.946 99.5734 134.897 99.6304C134.849 99.6792 134.779 99.7036 134.69 99.7036H134.238ZM133.517 102.647C133.444 102.663 133.391 102.655 133.359 102.623C133.334 102.598 133.322 102.557 133.322 102.5V102.281C133.322 102.191 133.334 102.13 133.359 102.097C133.383 102.065 133.436 102.036 133.517 102.012L134.104 101.853V102.036C133.99 102.028 133.876 101.959 133.762 101.829C133.656 101.698 133.603 101.54 133.603 101.352C133.603 101.059 133.705 100.819 133.908 100.632C134.112 100.445 134.368 100.351 134.678 100.351C134.775 100.351 134.869 100.359 134.958 100.375C135.048 100.4 135.121 100.424 135.178 100.449C135.276 100.506 135.325 100.571 135.325 100.644V100.925C135.325 101.023 135.28 101.051 135.191 101.01C135.02 100.937 134.836 100.901 134.641 100.901C134.486 100.901 134.364 100.933 134.275 100.998C134.185 101.072 134.14 101.161 134.14 101.267C134.14 101.43 134.222 101.548 134.384 101.621C134.555 101.703 134.775 101.711 135.044 101.646L135.423 101.548C135.512 101.523 135.569 101.523 135.594 101.548C135.626 101.58 135.642 101.629 135.642 101.694V101.926C135.642 102.032 135.594 102.101 135.496 102.134L133.517 102.647Z" fill="white"/>
<defs>
<linearGradient id="paint0_linear_47_769" x1="25.5" y1="19" x2="118" y2="137.5" gradientUnits="userSpaceOnUse">
<stop stop-color="#4A907B"/>
<stop offset="1" stop-color="#3D705E"/>
</linearGradient>
</defs>
</svg>
