<svg width="64" height="64" viewBox="0 0 64 64" fill="none" xmlns="http://www.w3.org/2000/svg">
<path fill-rule="evenodd" clip-rule="evenodd" d="M16.3998 0H37.7971L55.932 18.9026V55.6682C55.932 60.2739 52.2059 64 47.6161 64H16.3998C11.7941 64 8.06799 60.2739 8.06799 55.6682V8.3318C8.06791 3.72612 11.794 0 16.3998 0Z" fill="#E5252A"/>
<path opacity="0.302" fill-rule="evenodd" clip-rule="evenodd" d="M37.781 0V18.7586H55.9319L37.781 0Z" fill="white"/>
<path d="M17.3273 47.7522V36.062H22.3008C23.5322 36.062 24.5077 36.3978 25.2434 37.0855C25.979 37.7572 26.3468 38.6687 26.3468 39.8041C26.3468 40.9396 25.979 41.8511 25.2434 42.5228C24.5077 43.2105 23.5322 43.5463 22.3008 43.5463H20.3178V47.7522H17.3273ZM20.3178 41.0036H21.965C22.4127 41.0036 22.7646 40.9076 23.0045 40.6838C23.2443 40.4759 23.3723 40.188 23.3723 39.8042C23.3723 39.4204 23.2444 39.1326 23.0045 38.9247C22.7646 38.7008 22.4128 38.6049 21.965 38.6049H20.3178V41.0036ZM27.5781 47.7522V36.062H31.7201C32.5357 36.062 33.3033 36.1739 34.0229 36.4138C34.7425 36.6537 35.3982 36.9896 35.9739 37.4534C36.5497 37.9011 37.0134 38.5088 37.3492 39.2764C37.6691 40.0441 37.845 40.9236 37.845 41.9151C37.845 42.8906 37.6691 43.7702 37.3492 44.5378C37.0134 45.3054 36.5497 45.9131 35.9739 46.3608C35.3982 46.8246 34.7425 47.1604 34.0229 47.4003C33.3033 47.6402 32.5357 47.7522 31.7201 47.7522H27.5781ZM30.5047 45.2095H31.3682C31.832 45.2095 32.2638 45.1615 32.6636 45.0495C33.0474 44.9376 33.4152 44.7617 33.767 44.5218C34.1029 44.282 34.3747 43.9461 34.5666 43.4983C34.7585 43.0506 34.8545 42.5228 34.8545 41.9151C34.8545 41.2914 34.7585 40.7637 34.5666 40.3159C34.3747 39.8682 34.1029 39.5324 33.767 39.2924C33.4152 39.0526 33.0474 38.8766 32.6636 38.7647C32.2638 38.6528 31.832 38.6048 31.3682 38.6048H30.5047V45.2095ZM39.3483 47.7522V36.062H47.6641V38.6048H42.3388V40.4758H46.5926V43.0026H42.3388V47.7522H39.3483Z" fill="white"/>
</svg>
