<svg width="24" height="24" viewBox="0 0 24 24" fill="none" xmlns="http://www.w3.org/2000/svg">
<g clip-path="url(#clip0_200_18266)">
<path fill-rule="evenodd" clip-rule="evenodd" d="M24.0005 15.7796V19.4973C23.9998 20.2496 23.7007 20.9709 23.1687 21.5028C22.6368 22.0347 21.9155 22.3338 21.1632 22.3344H2.83681C2.08465 22.3334 1.36358 22.0342 0.831702 21.5024C0.299824 20.9705 0.000553537 20.2495 -0.000488281 19.4973V15.7796C0.000865842 15.6313 0.0607577 15.4894 0.166157 15.385C0.271556 15.2805 0.413935 15.2219 0.562316 15.2219C0.710698 15.2219 0.853077 15.2805 0.958476 15.385C1.06388 15.4894 1.12377 15.6313 1.12512 15.7796V19.4973C1.12547 19.9512 1.30591 20.3864 1.62684 20.7074C1.94776 21.0283 2.38293 21.2088 2.83681 21.2092H21.1632C21.6171 21.2089 22.0523 21.0284 22.3733 20.7074C22.6943 20.3865 22.8747 19.9512 22.8751 19.4973V15.7796C22.8764 15.6313 22.9363 15.4894 23.0417 15.385C23.1471 15.2805 23.2895 15.2219 23.4379 15.2219C23.5863 15.2219 23.7286 15.2805 23.834 15.385C23.9394 15.4894 23.9993 15.6313 24.0007 15.7796H24.0005ZM14.1307 4.75463C12.1011 6.16558 10.4664 8.07266 9.38252 10.2942C8.29861 12.5158 7.8015 14.9779 7.93854 17.446C7.94578 17.5793 8.00029 17.7057 8.0923 17.8024C8.18431 17.8992 8.30779 17.9599 8.44057 17.9738C8.46045 17.9756 8.48037 17.9772 8.50025 17.9772C8.62387 17.9769 8.74394 17.9359 8.84189 17.8605C8.93984 17.785 9.0102 17.6794 9.04207 17.56C10.2608 13.0187 14.0267 10.3351 17.8658 11.2257L19.3056 13.7205C19.3592 13.8124 19.4376 13.8874 19.5319 13.9368C19.6261 13.9862 19.7324 14.008 19.8385 13.9998C19.9445 13.9917 20.0461 13.9535 20.1311 13.8896C20.2161 13.8257 20.2811 13.7389 20.3184 13.6393L23.9629 4.06154C23.9929 3.98353 24.0051 3.89982 23.9986 3.8165C23.9921 3.73318 23.967 3.65237 23.9252 3.57998C23.8835 3.50759 23.8261 3.44545 23.7572 3.3981C23.6884 3.35074 23.6098 3.31937 23.5272 3.30629L13.412 1.67316C13.3068 1.65563 13.1988 1.66843 13.1006 1.71005C13.0024 1.75168 12.9181 1.8204 12.8576 1.90819C12.797 1.99598 12.7627 2.0992 12.7587 2.20577C12.7547 2.31235 12.7811 2.41786 12.8348 2.50997L14.1307 4.75463Z" fill="#6C757D"/>
</g>
<defs>
<clipPath id="clip0_200_18266">
<rect width="24" height="24" fill="white"/>
</clipPath>
</defs>
</svg>
