<svg width="150" height="150" viewBox="0 0 150 150" fill="none" xmlns="http://www.w3.org/2000/svg">
<g id="right-decision 1">
<g id="Group">
<g id="Group_2">
<g id="Group_3">
<path id="Vector" d="M117.583 113.765C117.583 109.807 115.231 106.387 111.851 104.831C115.047 98.5132 110.112 90.6073 102.998 90.7337H90.6399V73.3022C90.4812 69.0239 84.3412 69.0272 84.1839 73.3022V90.7337H77.438V73.8043C77.2792 69.5261 71.1393 69.5293 70.982 73.8043V87.7602H70.8041C62.2091 87.7602 54.0449 91.311 48.1717 97.5533H34.07C33.2137 97.5533 32.3921 97.8937 31.787 98.4994C31.1816 99.1051 30.8415 99.9268 30.842 100.783L30.8626 136.979C30.8638 138.761 32.3087 140.205 34.0906 140.205H48.1873C54.0749 146.448 62.2341 149.998 70.8038 149.998H100.748C107.909 150.128 112.842 142.121 109.552 135.802C114.674 133.438 116.74 126.506 113.545 121.703C115.991 119.913 117.583 117.022 117.583 113.765ZM107.754 117.139H105.248C100.97 117.298 100.972 123.437 105.248 123.595C109.715 123.764 109.715 130.172 105.248 130.34L100.748 130.34C96.4694 130.499 96.4726 136.639 100.748 136.796C105.217 136.967 105.214 143.374 100.748 143.543L70.8038 143.542C63.6186 143.542 56.7928 140.384 52.0764 134.878C51.4631 134.162 50.5675 133.749 49.6246 133.749H37.3168L37.2995 104.009H49.6117C50.5563 104.009 51.4534 103.596 52.0667 102.877C56.765 97.3729 63.5942 94.2162 70.8038 94.2162H70.9919C71.1217 95.8798 72.5129 97.1894 74.21 97.1894H102.998C107.468 97.3597 107.465 103.767 102.998 103.936C98.7214 104.093 98.7214 110.234 102.998 110.392H107.754C112.224 110.562 112.22 116.97 107.754 117.139Z" fill="black"/>
</g>
</g>
<path id="Vector_2" d="M75.4855 51.9751C74.6295 51.9751 73.8084 51.635 73.203 51.0296L62.5527 40.3792C61.292 39.1185 61.292 37.0746 62.5527 35.8139C63.8137 34.5533 65.857 34.5533 67.118 35.8139L75.4858 44.1818L94.504 25.1633C95.765 23.9026 97.8083 23.9026 99.0693 25.1633C100.33 26.424 100.33 28.4679 99.0693 29.7286L77.7686 51.0293C77.1626 51.635 76.3415 51.9751 75.4855 51.9751Z" fill="black"/>
<path id="Vector_3" d="M80.8106 76.4444C59.6658 76.4444 42.4631 59.2417 42.4631 38.0971C44.3911 -12.706 117.238 -12.6923 119.158 38.0977C119.158 59.242 101.956 76.4444 80.8106 76.4444ZM80.8106 6.20565C63.2257 6.20565 48.9191 20.5122 48.9191 38.0971C50.5226 80.3473 111.105 80.3356 112.702 38.0969C112.702 20.5122 98.3956 6.20565 80.8106 6.20565Z" fill="#43806C"/>
</g>
</g>
</svg>
