<svg width="40" height="40" viewBox="0 0 40 40" fill="none" xmlns="http://www.w3.org/2000/svg">
<circle cx="20" cy="20" r="20" fill="#E9ECEF"/>
<path d="M20 10C17.38 10 15.25 12.13 15.25 14.75C15.25 17.32 17.26 19.4 19.88 19.49C19.96 19.48 20.04 19.48 20.1 19.49C20.12 19.49 20.13 19.49 20.15 19.49C20.16 19.49 20.16 19.49 20.17 19.49C22.73 19.4 24.74 17.32 24.75 14.75C24.75 12.13 22.62 10 20 10Z" fill="#6C757D"/>
<path d="M25.08 22.1499C22.29 20.2899 17.74 20.2899 14.93 22.1499C13.66 22.9999 12.96 24.1499 12.96 25.3799C12.96 26.6099 13.66 27.7499 14.92 28.5899C16.32 29.5299 18.16 29.9999 20 29.9999C21.84 29.9999 23.68 29.5299 25.08 28.5899C26.34 27.7399 27.04 26.5999 27.04 25.3599C27.03 24.1299 26.34 22.9899 25.08 22.1499Z" fill="#6C757D"/>
</svg>
